_________________________  Visit us at _________________________
  
http://p2pdl.com  ____________________________  http://p2pdl.com


Thale 2012 BRRip 480p x264 AAC - VYTO [P2PDL]

Genre: Fantasy | Horror | Mystery | Thriller
Plot: orwegian folklore turns out to be real when Leo and Elvis 
encounter Thale in a basement. A regular cleaning job turns 
into a struggle for survival, while they're trying to figure 
out what or who Thale is.
Director: Aleksander Nordaas
Stars: Silje Reinåmo, Erlend Nervold, Jon Sigve Skard.
Rated: N/A


Info: 
http://www.imdb.com/title/tt2112287/

General
Format                         : MPEG-4
File size                      : 280 MiB
Duration                       : 1h 17mn
Overall bit rate mode          : Variable
Overall bit rate               : 502 Kbps

Video
Format                         : AVC
Format profile                 : High 10@L4.1
Bit rate                       : 459 Kbps
Width                          : 720 pixels
Height                         : 400 pixels
Display aspect ratio           : 16:9
Frame rate mode                : Constant
Frame rate                     : 23.976 fps
Bit depth                      : 10 bits
Stream size                    : 256 MiB (91%)

Audio
Format                         : AAC
Bit rate mode                  : Variable
Bit rate                       : 40.0 Kbps
Channel(s)                     : 2 channels
Channel positions              : Front: L R
Sampling rate                  : 48.0 KHz / 24.0 KHz
Stream size                    : 22.3 MiB (8%)
Language                       : Norwegian

Subtitle                       : Yes (English)
Source                         : 1080p BluRay x264-IGUANA (Thanks)

Screens:
 
http://www.ultraimg.com/images/6MwdL.png 
http://www.ultraimg.com/images/JNs3w.png 
http://www.ultraimg.com/images/nHywM.png 
http://www.ultraimg.com/images/HsJdV.png 
http://www.ultraimg.com/images/vtKP3.png 
http://www.ultraimg.com/images/VTprS.png

----------------------------------------------------------------------------------------------------


Encoded using revolutionary 10bit encoding, which enables us to provide you more crispier 
and sharper images at small sizes, just make sure you follow our instructions without a fault.
Recommend to you to use latest version of VLC player. Install K-Lite Codec Pack or shark007 codecs
in case of any kind of problem in playback (For non-VLC Media Player users). Alternatively, install
Core AVC codecs, the fastest decoder that there is coupled with Community Center Codec Pack and play
on Windows Media Player Classic. Check sample to be sure.
Enjoy!

Encoder Notes:Looking For Early Access To Anything You Can Provide DVDScr, R5, DVDR, BluRay, Direct
Audio, Music Releases and Seedboxes. We require dedicated servers, so as to do more 
and fast releases of movies.
If You Got anything to offer please contact us at "contact@p2pdl.com".

Face book Fan Page:   
http://www.fb.me/p2pdl